<?xml version="1.0" encoding="UTF-8" standalone="no"?>
<svg width="87px" height="39px" viewBox="0 0 87 39" version="1.1" xmlns="http://www.w3.org/2000/svg" xmlns:xlink="http://www.w3.org/1999/xlink" xmlns:sketch="http://www.bohemiancoding.com/sketch/ns">
    <!-- Generator: Sketch 3.2.2 (9983) - http://www.bohemiancoding.com/sketch -->
    <title>new-btn</title>
    <desc>Created with Sketch.</desc>
    <defs></defs>
    <g id="Page-1" stroke="none" stroke-width="1" fill="none" fill-rule="evenodd" sketch:type="MSPage">
        <g id="new" sketch:type="MSLayerGroup">
            <path d="M79.75,12.5666667 L64.5,39 L0,39 L0,0 L36.25,0 L72.5,0 L79.75,12.5666667 Z" id="Path-2" fill="#FFA100" sketch:type="MSShapeGroup"></path>
            <path d="M22.56,24 L22.56,15.76 L30.88,24.48 L30.88,13.328 L29.696,13.328 L29.696,21.6 L21.376,12.88 L21.376,24 L22.56,24 Z M38.272,21.776 C38.128,22.096 37.888,22.432 37.584,22.688 C37.2,23.008 36.768,23.168 36.224,23.168 C35.072,23.168 34.128,22.288 34.112,20.912 L39.28,20.912 C39.312,20.032 39.072,19.008 38.656,18.416 C38.256,17.84 37.44,17.2 36.144,17.2 C34.144,17.2 32.928,18.736 32.928,20.72 C32.928,23.184 34.608,24.192 36.208,24.192 C37.056,24.192 37.808,23.92 38.416,23.376 C38.752,23.072 39.04,22.672 39.232,22.304 L38.272,21.776 Z M34.192,19.952 C34.368,18.96 35.168,18.224 36.144,18.224 C37.12,18.224 37.904,18.912 38.096,19.952 L34.192,19.952 Z M40.08,17.36 L43.344,24.464 L45.392,19.504 L47.44,24.464 L50.736,17.36 L49.456,17.36 L47.472,21.872 L45.408,16.848 L43.328,21.872 L41.36,17.36 L40.08,17.36 Z" id="New" fill="#1A1A1B" sketch:type="MSShapeGroup"></path>
        </g>
    </g>
</svg>