<?xml version="1.0" encoding="UTF-8" standalone="no"?>
<svg width="87px" height="39px" viewBox="0 0 87 39" version="1.1" xmlns="http://www.w3.org/2000/svg" xmlns:xlink="http://www.w3.org/1999/xlink" xmlns:sketch="http://www.bohemiancoding.com/sketch/ns">
    <!-- Generator: Sketch 3.2.2 (9983) - http://www.bohemiancoding.com/sketch -->
    <title>share-btn</title>
    <desc>Created with Sketch.</desc>
    <defs></defs>
    <g id="Page-1" stroke="none" stroke-width="1" fill="none" fill-rule="evenodd" sketch:type="MSPage">
        <g id="share" sketch:type="MSLayerGroup">
            <path d="M15.25,12.5666667 L0,39 L87,39 L87,0 L38.75,0 L8,0 L15.25,12.5666667 Z" id="Path-4" fill="#FFA100" sketch:type="MSShapeGroup"></path>
            <path d="M40.088,14.816 C39.848,14.352 39.48,13.92 39.048,13.632 C38.52,13.28 37.992,13.152 37.336,13.152 C35.608,13.152 34.344,14.256 34.344,15.904 C34.344,16.704 34.616,17.2 35.08,17.648 C35.56,18.112 36.088,18.336 36.504,18.528 L37.464,18.976 C38.024,19.232 38.44,19.424 38.744,19.712 C39.128,20.064 39.272,20.48 39.272,20.96 C39.272,22.032 38.584,23.072 37.128,23.072 C36.584,23.072 36.056,22.944 35.592,22.48 C35.288,22.16 35.032,21.68 34.952,21.12 L33.8,21.44 C33.944,22.08 34.264,22.816 34.792,23.328 C35.528,24.048 36.408,24.192 37.112,24.192 C39.032,24.192 40.488,22.88 40.488,20.912 C40.488,20.144 40.264,19.52 39.72,18.976 C39.272,18.528 38.696,18.24 38.072,17.968 L37.048,17.52 C36.648,17.344 36.248,17.168 35.928,16.848 C35.64,16.576 35.528,16.336 35.528,15.92 C35.528,14.928 36.264,14.272 37.32,14.272 C37.928,14.272 38.312,14.48 38.52,14.64 C38.76,14.832 39,15.152 39.144,15.44 L40.088,14.816 Z M42.376,24 L43.528,24 L43.528,20.528 C43.528,20.048 43.56,19.264 44.008,18.736 C44.344,18.336 44.776,18.224 45.176,18.224 C45.688,18.224 46.04,18.416 46.264,18.704 C46.536,19.056 46.568,19.52 46.568,19.92 L46.568,24 L47.72,24 L47.72,19.888 C47.72,19.152 47.672,18.608 47.336,18.112 C46.936,17.52 46.216,17.2 45.432,17.2 C44.328,17.2 43.736,17.856 43.528,18.128 L43.528,12.336 L42.376,12.336 L42.376,24 Z M54.984,18.304 C54.68,17.904 53.992,17.2 52.712,17.2 C51.016,17.2 49.48,18.384 49.48,20.672 C49.48,23.008 51.032,24.192 52.712,24.192 C53.88,24.192 54.6,23.568 54.984,23.072 L54.984,24 L56.136,24 L56.136,17.36 L54.984,17.36 L54.984,18.304 Z M52.84,18.224 C53.864,18.224 55.048,18.976 55.048,20.688 C55.048,22 54.248,23.168 52.84,23.168 C51.464,23.168 50.664,22.096 50.664,20.672 C50.664,19.056 51.704,18.224 52.84,18.224 L52.84,18.224 Z M58.312,24 L59.464,24 L59.464,20.496 C59.464,19.408 59.656,18.96 59.848,18.704 C60.024,18.48 60.312,18.288 60.776,18.288 C60.952,18.288 61.192,18.336 61.448,18.512 L61.992,17.472 C61.704,17.328 61.32,17.2 60.968,17.2 C60.072,17.2 59.576,17.904 59.464,18.08 L59.464,17.36 L58.312,17.36 L58.312,24 Z M67.592,21.776 C67.448,22.096 67.208,22.432 66.904,22.688 C66.52,23.008 66.088,23.168 65.544,23.168 C64.392,23.168 63.448,22.288 63.432,20.912 L68.6,20.912 C68.632,20.032 68.392,19.008 67.976,18.416 C67.576,17.84 66.76,17.2 65.464,17.2 C63.464,17.2 62.248,18.736 62.248,20.72 C62.248,23.184 63.928,24.192 65.528,24.192 C66.376,24.192 67.128,23.92 67.736,23.376 C68.072,23.072 68.36,22.672 68.552,22.304 L67.592,21.776 Z M63.512,19.952 C63.688,18.96 64.488,18.224 65.464,18.224 C66.44,18.224 67.224,18.912 67.416,19.952 L63.512,19.952 Z" id="Share" fill="#1A1A1B" sketch:type="MSShapeGroup"></path>
        </g>
    </g>
</svg>