<?xml version="1.0" encoding="UTF-8" standalone="no"?>
<svg width="416px" height="416px" viewBox="0 0 416 416" version="1.1" xmlns="http://www.w3.org/2000/svg" xmlns:xlink="http://www.w3.org/1999/xlink" xmlns:sketch="http://www.bohemiancoding.com/sketch/ns">
    <title>Triglover icon</title>
    <defs></defs>
    <g id="Page-1" stroke="none" stroke-width="1" fill="none" fill-rule="evenodd" sketch:type="MSPage">
        <path d="M208,416 C322.875234,416 416,322.875234 416,208 C416,93.1247663 322.875234,0 208,0 C93.1247663,0 0,93.1247663 0,208 C0,322.875234 93.1247663,416 208,416 Z M208,376 C300.783843,376 376,300.783843 376,208 C376,115.216157 300.783843,40 208,40 C115.216157,40 40,115.216157 40,208 C40,300.783843 115.216157,376 208,376 Z M208,376" id="Oval-1" fill="#FFA100" sketch:type="MSShapeGroup"></path>
        <polygon d="M264,159 L341,292 L187,292 L264,159 Z M264,159" id="Triangle-copy" opacity="0.66" fill="#FFA100" sketch:type="MSShapeGroup" transform="translate(264.000000, 225.500000) rotate(-180.000000) translate(-264.000000, -225.500000) " points="264 159 341 292 187 292 "></polygon>
        <polygon d="M152,159 L229,292 L75,292 L152,159 Z M152,159" id="Triangle-copy" opacity="0.66" fill="#FFA100" sketch:type="MSShapeGroup" transform="translate(152.000000, 225.500000) rotate(-180.000000) translate(-152.000000, -225.500000) " points="152 159 229 292 75 292 "></polygon>
        <polygon d="M208,159 L285,292 L131,292 L208,159 Z M208,159" id="Triangle" opacity="0.73" fill="#FF9F00" sketch:type="MSShapeGroup" transform="translate(208.000000, 225.500000) rotate(-180.000000) translate(-208.000000, -225.500000) " points="208 159 285 292 131 292 "></polygon>
    </g>
</svg>